<?xml version="1.0" encoding="UTF-8" standalone="no"?>
<svg
   xmlns:dc="http://purl.org/dc/elements/1.1/"
   xmlns:cc="http://creativecommons.org/ns#"
   xmlns:rdf="http://www.w3.org/1999/02/22-rdf-syntax-ns#"
   xmlns:svg="http://www.w3.org/2000/svg"
   xmlns="http://www.w3.org/2000/svg"
   xmlns:sodipodi="http://sodipodi.sourceforge.net/DTD/sodipodi-0.dtd"
   xmlns:inkscape="http://www.inkscape.org/namespaces/inkscape"
   width="404.71118pt"
   height="165.49768pt"
   viewBox="0 0 404.71119 165.49768"
   version="1.1"
   id="svg4846"
   sodipodi:docname="neuron-graph.svg"
   inkscape:version="0.92.2 5c3e80d, 2017-08-06">
  <metadata
     id="metadata4852">
    <rdf:RDF>
      <cc:Work
         rdf:about="">
        <dc:format>image/svg+xml</dc:format>
        <dc:type
           rdf:resource="http://purl.org/dc/dcmitype/StillImage" />
      </cc:Work>
    </rdf:RDF>
  </metadata>
  <defs
     id="defs4850">
    <marker
       inkscape:stockid="Arrow1Lend"
       orient="auto"
       refY="0"
       refX="0"
       id="Arrow1Lend"
       style="overflow:visible"
       inkscape:isstock="true">
      <path
         id="path5533"
         d="M 0,0 5,-5 -12.5,0 5,5 Z"
         style="fill:#000000;fill-opacity:1;fill-rule:evenodd;stroke:#000000;stroke-width:1.00000003pt;stroke-opacity:1"
         transform="matrix(-0.8,0,0,-0.8,-10,0)"
         inkscape:connector-curvature="0" />
    </marker>
  </defs>
  <sodipodi:namedview
     pagecolor="#ffffff"
     bordercolor="#666666"
     borderopacity="1"
     objecttolerance="10"
     gridtolerance="10"
     guidetolerance="10"
     inkscape:pageopacity="0"
     inkscape:pageshadow="2"
     inkscape:window-width="1925"
     inkscape:window-height="1161"
     id="namedview4848"
     showgrid="false"
     inkscape:zoom="1.4047619"
     inkscape:cx="185.9644"
     inkscape:cy="-7.3883599"
     inkscape:window-x="0"
     inkscape:window-y="0"
     inkscape:window-maximized="0"
     inkscape:current-layer="svg4846" />
  <path
     inkscape:connector-curvature="0"
     id="path4709"
     d="m 147.95333,41.908202 c 0,2.40234 -3.60157,2.40234 -3.60157,0 0,-2.39844 3.60157,-2.39844 3.60157,0"
     style="fill:#ff0000;fill-opacity:1;fill-rule:nonzero;stroke:#ff0000;stroke-width:0.75;stroke-linecap:round;stroke-linejoin:round;stroke-miterlimit:10;stroke-opacity:1" />
  <path
     inkscape:connector-curvature="0"
     id="path4711"
     d="m 175.85958,21.185542 c 0,2.39844 -3.60157,2.39844 -3.60157,0 0,-2.39843 3.60157,-2.39843 3.60157,0"
     style="fill:#ff0000;fill-opacity:1;fill-rule:nonzero;stroke:#ff0000;stroke-width:0.75;stroke-linecap:round;stroke-linejoin:round;stroke-miterlimit:10;stroke-opacity:1" />
  <path
     inkscape:connector-curvature="0"
     id="path4713"
     d="m 172.42208,8.5800725 c 0,2.3984395 -3.60157,2.3984395 -3.60157,0 0,-2.40234 3.60157,-2.40234 3.60157,0"
     style="fill:#ff0000;fill-opacity:1;fill-rule:nonzero;stroke:#ff0000;stroke-width:0.75;stroke-linecap:round;stroke-linejoin:round;stroke-miterlimit:10;stroke-opacity:1" />
  <path
     inkscape:connector-curvature="0"
     id="path4715"
     d="m 258.64864,26.677732 c 0,2.39844 -3.59766,2.39844 -3.59766,0 0,-2.40234 3.59766,-2.40234 3.59766,0"
     style="fill:#ff0000;fill-opacity:1;fill-rule:nonzero;stroke:#ff0000;stroke-width:0.75;stroke-linecap:round;stroke-linejoin:round;stroke-miterlimit:10;stroke-opacity:1" />
  <path
     inkscape:connector-curvature="0"
     id="path4717"
     d="m 257.86739,17.044922 c 0,2.40234 -3.60156,2.40234 -3.60156,0 0,-2.39844 3.60156,-2.39844 3.60156,0"
     style="fill:#ff0000;fill-opacity:1;fill-rule:nonzero;stroke:#ff0000;stroke-width:0.75;stroke-linecap:round;stroke-linejoin:round;stroke-miterlimit:10;stroke-opacity:1" />
  <path
     inkscape:connector-curvature="0"
     id="path4719"
     d="m 308.10567,37.115232 c 0,2.40234 -3.59766,2.40234 -3.59766,0 0,-2.39844 3.59766,-2.39844 3.59766,0"
     style="fill:#ff0000;fill-opacity:1;fill-rule:nonzero;stroke:#ff0000;stroke-width:0.75;stroke-linecap:round;stroke-linejoin:round;stroke-miterlimit:10;stroke-opacity:1" />
  <path
     inkscape:connector-curvature="0"
     id="path4721"
     d="m 317.30879,38.580072 c 0,2.40235 -3.60156,2.40235 -3.60156,0 0,-2.39843 3.60156,-2.39843 3.60156,0"
     style="fill:#ff0000;fill-opacity:1;fill-rule:nonzero;stroke:#ff0000;stroke-width:0.75;stroke-linecap:round;stroke-linejoin:round;stroke-miterlimit:10;stroke-opacity:1" />
  <path
     inkscape:connector-curvature="0"
     id="path4723"
     d="m 319.13301,35.166012 c 0,2.40235 -3.59765,2.40235 -3.59765,0 0,-2.39844 3.59765,-2.39844 3.59765,0"
     style="fill:#ff0000;fill-opacity:1;fill-rule:nonzero;stroke:#ff0000;stroke-width:0.75;stroke-linecap:round;stroke-linejoin:round;stroke-miterlimit:10;stroke-opacity:1" />
  <path
     inkscape:connector-curvature="0"
     id="path4725"
     d="m 338.86739,56.818362 c 0,2.39843 -3.59766,2.39843 -3.59766,0 0,-2.40235 3.59766,-2.40235 3.59766,0"
     style="fill:#ff0000;fill-opacity:1;fill-rule:nonzero;stroke:#ff0000;stroke-width:0.75;stroke-linecap:round;stroke-linejoin:round;stroke-miterlimit:10;stroke-opacity:1" />
  <path
     inkscape:connector-curvature="0"
     id="path4727"
     d="m 339.84004,53.865232 c 0,2.40234 -3.59765,2.40234 -3.59765,0 0,-2.39844 3.59765,-2.39844 3.59765,0"
     style="fill:#ff0000;fill-opacity:1;fill-rule:nonzero;stroke:#ff0000;stroke-width:0.75;stroke-linecap:round;stroke-linejoin:round;stroke-miterlimit:10;stroke-opacity:1" />
  <path
     inkscape:connector-curvature="0"
     id="path4729"
     d="m 349.23848,48.865232 c 0,2.39844 -3.60156,2.39844 -3.60156,0 0,-2.39844 3.60156,-2.39844 3.60156,0"
     style="fill:#ff0000;fill-opacity:1;fill-rule:nonzero;stroke:#ff0000;stroke-width:0.75;stroke-linecap:round;stroke-linejoin:round;stroke-miterlimit:10;stroke-opacity:1" />
  <path
     inkscape:connector-curvature="0"
     id="path4731"
     d="m 360.37911,50.798822 c 0,2.39844 -3.60157,2.39844 -3.60157,0 0,-2.39843 3.60157,-2.39843 3.60157,0"
     style="fill:#ff0000;fill-opacity:1;fill-rule:nonzero;stroke:#ff0000;stroke-width:0.75;stroke-linecap:round;stroke-linejoin:round;stroke-miterlimit:10;stroke-opacity:1" />
  <path
     inkscape:connector-curvature="0"
     id="path4733"
     d="m 341.54708,59.091792 c 0,2.39844 -3.59766,2.39844 -3.59766,0 0,-2.40234 3.59766,-2.40234 3.59766,0"
     style="fill:#ff0000;fill-opacity:1;fill-rule:nonzero;stroke:#ff0000;stroke-width:0.75;stroke-linecap:round;stroke-linejoin:round;stroke-miterlimit:10;stroke-opacity:1" />
  <path
     inkscape:connector-curvature="0"
     id="path4735"
     d="m 364.85176,44.908202 c 0,2.39844 -3.60156,2.39844 -3.60156,0 0,-2.40234 3.60156,-2.40234 3.60156,0"
     style="fill:#ff0000;fill-opacity:1;fill-rule:nonzero;stroke:#ff0000;stroke-width:0.75;stroke-linecap:round;stroke-linejoin:round;stroke-miterlimit:10;stroke-opacity:1" />
  <path
     inkscape:connector-curvature="0"
     id="path4737"
     d="m 364.08223,73.337892 c 0,2.40234 -3.59765,2.40234 -3.59765,0 0,-2.39844 3.59765,-2.39844 3.59765,0"
     style="fill:#ff0000;fill-opacity:1;fill-rule:nonzero;stroke:#ff0000;stroke-width:0.75;stroke-linecap:round;stroke-linejoin:round;stroke-miterlimit:10;stroke-opacity:1" />
  <path
     inkscape:connector-curvature="0"
     id="path4739"
     d="m 376.71114,75.630862 c 0,2.40234 -3.60156,2.40234 -3.60156,0 0,-2.39844 3.60156,-2.39844 3.60156,0"
     style="fill:#ff0000;fill-opacity:1;fill-rule:nonzero;stroke:#ff0000;stroke-width:0.75;stroke-linecap:round;stroke-linejoin:round;stroke-miterlimit:10;stroke-opacity:1" />
  <path
     inkscape:connector-curvature="0"
     id="path4741"
     d="m 20.336133,160.55273 c 0,2.40234 -3.597657,2.40234 -3.597657,0 0,-2.39844 3.597657,-2.39844 3.597657,0"
     style="fill:#00ff00;fill-opacity:1;fill-rule:nonzero;stroke:#00ff00;stroke-width:0.75;stroke-linecap:round;stroke-linejoin:round;stroke-miterlimit:10;stroke-opacity:1" />
  <path
     inkscape:connector-curvature="0"
     id="path4743"
     d="m 161.86739,75.107422 c 0,2.40234 -3.60156,2.40234 -3.60156,0 0,-2.39844 3.60156,-2.39844 3.60156,0"
     style="fill:#00ff00;fill-opacity:1;fill-rule:nonzero;stroke:#00ff00;stroke-width:0.75;stroke-linecap:round;stroke-linejoin:round;stroke-miterlimit:10;stroke-opacity:1" />
  <path
     inkscape:connector-curvature="0"
     id="path4745"
     d="m 180.29708,9.4433625 c 0,2.3984295 -3.60157,2.3984295 -3.60157,0 0,-2.40235 3.60157,-2.40235 3.60157,0"
     style="fill:#00ff00;fill-opacity:1;fill-rule:nonzero;stroke:#00ff00;stroke-width:0.75;stroke-linecap:round;stroke-linejoin:round;stroke-miterlimit:10;stroke-opacity:1" />
  <path
     inkscape:connector-curvature="0"
     id="path4747"
     d="m 170.01583,2.1738225 c 0,2.40235 -3.60157,2.40235 -3.60157,0 0,-2.39843 3.60157,-2.39843 3.60157,0"
     style="fill:#00ff00;fill-opacity:1;fill-rule:nonzero;stroke:#00ff00;stroke-width:0.75;stroke-linecap:round;stroke-linejoin:round;stroke-miterlimit:10;stroke-opacity:1" />
  <path
     inkscape:connector-curvature="0"
     id="path4749"
     d="m 256.03926,14.244142 c 0,2.40234 -3.59765,2.40234 -3.59765,0 0,-2.39844 3.59765,-2.39844 3.59765,0"
     style="fill:#00ff00;fill-opacity:1;fill-rule:nonzero;stroke:#00ff00;stroke-width:0.75;stroke-linecap:round;stroke-linejoin:round;stroke-miterlimit:10;stroke-opacity:1" />
  <path
     inkscape:connector-curvature="0"
     id="path4751"
     d="m 267.72286,4.3652325 c 0,2.39844 -3.60157,2.39844 -3.60157,0 0,-2.39844 3.60157,-2.39844 3.60157,0"
     style="fill:#00ff00;fill-opacity:1;fill-rule:nonzero;stroke:#00ff00;stroke-width:0.75;stroke-linecap:round;stroke-linejoin:round;stroke-miterlimit:10;stroke-opacity:1" />
  <path
     inkscape:connector-curvature="0"
     id="path4753"
     d="m 309.12911,32.732422 c 0,2.40234 -3.60157,2.40234 -3.60157,0 0,-2.39844 3.60157,-2.39844 3.60157,0"
     style="fill:#00ff00;fill-opacity:1;fill-rule:nonzero;stroke:#00ff00;stroke-width:0.75;stroke-linecap:round;stroke-linejoin:round;stroke-miterlimit:10;stroke-opacity:1" />
  <path
     inkscape:connector-curvature="0"
     id="path4755"
     d="m 317.51192,33.474612 c 0,2.40234 -3.59766,2.40234 -3.59766,0 0,-2.39844 3.59766,-2.39844 3.59766,0"
     style="fill:#00ff00;fill-opacity:1;fill-rule:nonzero;stroke:#00ff00;stroke-width:0.75;stroke-linecap:round;stroke-linejoin:round;stroke-miterlimit:10;stroke-opacity:1" />
  <path
     inkscape:connector-curvature="0"
     id="path4757"
     d="m 322.09004,32.974612 c 0,2.40234 -3.60156,2.40234 -3.60156,0 0,-2.39844 3.60156,-2.39844 3.60156,0"
     style="fill:#00ff00;fill-opacity:1;fill-rule:nonzero;stroke:#00ff00;stroke-width:0.75;stroke-linecap:round;stroke-linejoin:round;stroke-miterlimit:10;stroke-opacity:1" />
  <path
     inkscape:connector-curvature="0"
     id="path4759"
     d="m 335.29317,48.212892 c 0,2.40234 -3.60156,2.40234 -3.60156,0 0,-2.39844 3.60156,-2.39844 3.60156,0"
     style="fill:#00ff00;fill-opacity:1;fill-rule:nonzero;stroke:#00ff00;stroke-width:0.75;stroke-linecap:round;stroke-linejoin:round;stroke-miterlimit:10;stroke-opacity:1" />
  <path
     inkscape:connector-curvature="0"
     id="path4761"
     d="m 348.51973,41.662112 c 0,2.39843 -3.59765,2.39843 -3.59765,0 0,-2.40235 3.59765,-2.40235 3.59765,0"
     style="fill:#00ff00;fill-opacity:1;fill-rule:nonzero;stroke:#00ff00;stroke-width:0.75;stroke-linecap:round;stroke-linejoin:round;stroke-miterlimit:10;stroke-opacity:1" />
  <path
     inkscape:connector-curvature="0"
     id="path4763"
     d="m 358.91426,46.412112 c 0,2.40234 -3.59765,2.40234 -3.59765,0 0,-2.39844 3.59765,-2.39844 3.59765,0"
     style="fill:#00ff00;fill-opacity:1;fill-rule:nonzero;stroke:#00ff00;stroke-width:0.75;stroke-linecap:round;stroke-linejoin:round;stroke-miterlimit:10;stroke-opacity:1" />
  <path
     inkscape:connector-curvature="0"
     id="path4765"
     d="m 395.30489,43.580072 c 0,2.39844 -3.60156,2.39844 -3.60156,0 0,-2.40234 3.60156,-2.40234 3.60156,0"
     style="fill:#00ff00;fill-opacity:1;fill-rule:nonzero;stroke:#00ff00;stroke-width:0.75;stroke-linecap:round;stroke-linejoin:round;stroke-miterlimit:10;stroke-opacity:1" />
  <path
     inkscape:connector-curvature="0"
     id="path4767"
     d="m 375.38692,25.650392 c 0,2.39843 -3.60156,2.39843 -3.60156,0 0,-2.39844 3.60156,-2.39844 3.60156,0"
     style="fill:#00ff00;fill-opacity:1;fill-rule:nonzero;stroke:#00ff00;stroke-width:0.75;stroke-linecap:round;stroke-linejoin:round;stroke-miterlimit:10;stroke-opacity:1" />
  <path
     inkscape:connector-curvature="0"
     id="path4769"
     d="m 356.16036,19.884762 c 0,2.39844 -3.60157,2.39844 -3.60157,0 0,-2.40234 3.60157,-2.40234 3.60157,0"
     style="fill:#00ff00;fill-opacity:1;fill-rule:nonzero;stroke:#00ff00;stroke-width:0.75;stroke-linecap:round;stroke-linejoin:round;stroke-miterlimit:10;stroke-opacity:1" />
  <path
     inkscape:connector-curvature="0"
     id="path4771"
     d="m 362.41817,89.666012 c 0,2.40235 -3.59766,2.40235 -3.59766,0 0,-2.39844 3.59766,-2.39844 3.59766,0"
     style="fill:#00ff00;fill-opacity:1;fill-rule:nonzero;stroke:#00ff00;stroke-width:0.75;stroke-linecap:round;stroke-linejoin:round;stroke-miterlimit:10;stroke-opacity:1" />
  <path
     inkscape:connector-curvature="0"
     id="path4773"
     d="m 377.29708,82.845702 c 0,2.39844 -3.59766,2.39844 -3.59766,0 0,-2.40234 3.59766,-2.40234 3.59766,0"
     style="fill:#00ff00;fill-opacity:1;fill-rule:nonzero;stroke:#00ff00;stroke-width:0.75;stroke-linecap:round;stroke-linejoin:round;stroke-miterlimit:10;stroke-opacity:1" />
  <path
     inkscape:connector-curvature="0"
     id="path4775"
     d="m 404.33614,82.951172 c 0,2.39844 -3.59766,2.39844 -3.59766,0 0,-2.40235 3.59766,-2.40235 3.59766,0"
     style="fill:#00ff00;fill-opacity:1;fill-rule:nonzero;stroke:#00ff00;stroke-width:0.75;stroke-linecap:round;stroke-linejoin:round;stroke-miterlimit:10;stroke-opacity:1" />
  <path
     inkscape:connector-curvature="0"
     id="path4777"
     d="m 20.336133,160.55273 c 0,2.40234 -3.597657,2.40234 -3.597657,0 0,-2.39844 3.597657,-2.39844 3.597657,0"
     style="fill:#9e1ef0;fill-opacity:1;fill-rule:nonzero;stroke:#9e1ef0;stroke-width:0.75;stroke-linecap:round;stroke-linejoin:round;stroke-miterlimit:10;stroke-opacity:1" />
  <path
     inkscape:connector-curvature="0"
     id="path4779"
     d="m 18.535352,160.55273 1.757812,-5.80859 2.921875,-3.3711 1.3125,-2.91406 -0.675781,-2.69922 -0.05078,-2.98047 0.683594,-1.44531 2.03125,-0.11328 2.390625,-3.44922 -0.824219,-1.84375 0.675782,-3.97656 2.167968,-2.98047 2.054688,-2.9375 0.992188,-3.82813 0.648437,-4.91796 1.519531,-8.00782 2.613282,-8.89453 2.921874,-5.628898 6.417966,-7.9336 4.27344,-3.67187 4.68359,-1.48047 6.19532,-5.29297 4.33984,-4.72266 5.36328,-3.05859 4.76953,-5.38281 9.91797,-3.84766 10.12891,-5.57422 9.488276,-7.05469 7.51562,-1.28125 9.81251,-0.48437 8.44531,-1.11328 6.32422,-1.29688 4.48047,-0.63672 2.32031,-0.0156"
     style="fill:none;stroke:#bdbdbd;stroke-width:1.5;stroke-linecap:round;stroke-linejoin:round;stroke-miterlimit:10;stroke-opacity:1" />
  <path
     inkscape:connector-curvature="0"
     id="path4781"
     d="m 146.15254,41.908202 3.15235,3.42969 5.48047,4.14453 2.21484,4.84375 0.97656,3.32812 1.23047,5.71094 1.02344,4.82031 0.0273,3.91407 -0.1914,3.00781"
     style="fill:none;stroke:#bdbdbd;stroke-width:1.5;stroke-linecap:round;stroke-linejoin:round;stroke-miterlimit:10;stroke-opacity:1" />
  <path
     inkscape:connector-curvature="0"
     id="path4783"
     d="m 146.15254,41.908202 4.22657,-1.89844 4.96875,-2.86719 6.38281,-3.99609 2.23047,-3.05469 5.91015,-4.83203 4.1875,-4.07422"
     style="fill:none;stroke:#bdbdbd;stroke-width:1.5;stroke-linecap:round;stroke-linejoin:round;stroke-miterlimit:10;stroke-opacity:1" />
  <path
     inkscape:connector-curvature="0"
     id="path4785"
     d="m 174.05879,21.185542 -0.20703,-5.86328 -1.77734,-4.86719 -1.45313,-1.8749995"
     style="fill:none;stroke:#bdbdbd;stroke-width:1.5;stroke-linecap:round;stroke-linejoin:round;stroke-miterlimit:10;stroke-opacity:1" />
  <path
     inkscape:connector-curvature="0"
     id="path4787"
     d="m 170.62129,8.5800725 2.24219,-0.97656 2.03516,-0.43359 1.89844,-0.0625 -2.15625,3.7656195 0.89453,0.6836 1.14062,-1.15625 -0.33203,-0.7148495 2.15234,-0.24218"
     style="fill:none;stroke:#bdbdbd;stroke-width:1.5;stroke-linecap:round;stroke-linejoin:round;stroke-miterlimit:10;stroke-opacity:1" />
  <path
     inkscape:connector-curvature="0"
     id="path4789"
     d="m 170.62129,8.5800725 -0.4375,-2.17187 -1.16015,-1.50391 -0.8086,-2.73047"
     style="fill:none;stroke:#bdbdbd;stroke-width:1.5;stroke-linecap:round;stroke-linejoin:round;stroke-miterlimit:10;stroke-opacity:1" />
  <path
     inkscape:connector-curvature="0"
     id="path4791"
     d="m 174.05879,21.185542 9.63672,-0.5 4.82813,-1.88281 6.86328,-2.29687 5.40625,-0.46875 8.59766,1.15234 3.61328,1.59375 4.1289,-0.10547 5.21485,1.09766 9.60156,1.85547 8.54297,2.71875 3.53906,1.2539 5.17969,0.47656 7.63672,0.59766"
     style="fill:none;stroke:#bdbdbd;stroke-width:1.5;stroke-linecap:round;stroke-linejoin:round;stroke-miterlimit:10;stroke-opacity:1" />
  <path
     inkscape:connector-curvature="0"
     id="path4793"
     d="m 256.84786,26.677732 -0.58594,-3.46484 -0.76953,-3.67188 0.57422,-2.49609"
     style="fill:none;stroke:#bdbdbd;stroke-width:1.5;stroke-linecap:round;stroke-linejoin:round;stroke-miterlimit:10;stroke-opacity:1" />
  <path
     inkscape:connector-curvature="0"
     id="path4795"
     d="m 256.06661,17.044922 -1.70703,-1.05469 -0.11719,-1.74609"
     style="fill:none;stroke:#bdbdbd;stroke-width:1.5;stroke-linecap:round;stroke-linejoin:round;stroke-miterlimit:10;stroke-opacity:1" />
  <path
     inkscape:connector-curvature="0"
     id="path4797"
     d="m 256.06661,17.044922 1.55468,-2.27735 1.34766,-3.09765 2.39453,-4.4374995 2.99219,-2.33594 1.56641,-0.53125"
     style="fill:none;stroke:#bdbdbd;stroke-width:1.5;stroke-linecap:round;stroke-linejoin:round;stroke-miterlimit:10;stroke-opacity:1" />
  <path
     inkscape:connector-curvature="0"
     id="path4799"
     d="m 256.84786,26.677732 5.41797,1.57422 4.70312,0.92969 5.50781,0.99218 4.76563,2.33204 6.50781,3.2539 5.00391,3.80469 4.64453,1.57812 5.21094,0.625 2.79296,-2.27343 4.90625,-2.37891"
     style="fill:none;stroke:#bdbdbd;stroke-width:1.5;stroke-linecap:round;stroke-linejoin:round;stroke-miterlimit:10;stroke-opacity:1" />
  <path
     inkscape:connector-curvature="0"
     id="path4801"
     d="m 306.30879,37.115232 1.01954,-4.38281"
     style="fill:none;stroke:#bdbdbd;stroke-width:1.5;stroke-linecap:round;stroke-linejoin:round;stroke-miterlimit:10;stroke-opacity:1" />
  <path
     inkscape:connector-curvature="0"
     id="path4803"
     d="m 306.30879,37.115232 4.97266,1.94922 4.22656,-0.48438"
     style="fill:none;stroke:#bdbdbd;stroke-width:1.5;stroke-linecap:round;stroke-linejoin:round;stroke-miterlimit:10;stroke-opacity:1" />
  <path
     inkscape:connector-curvature="0"
     id="path4805"
     d="m 315.50801,38.580072 1.82813,-3.41406"
     style="fill:none;stroke:#bdbdbd;stroke-width:1.5;stroke-linecap:round;stroke-linejoin:round;stroke-miterlimit:10;stroke-opacity:1" />
  <path
     inkscape:connector-curvature="0"
     id="path4807"
     d="m 317.33614,35.166012 -1.6211,-1.6914"
     style="fill:none;stroke:#bdbdbd;stroke-width:1.5;stroke-linecap:round;stroke-linejoin:round;stroke-miterlimit:10;stroke-opacity:1" />
  <path
     inkscape:connector-curvature="0"
     id="path4809"
     d="m 317.33614,35.166012 1.85156,-2.125 1.10156,-0.0664"
     style="fill:none;stroke:#bdbdbd;stroke-width:1.5;stroke-linecap:round;stroke-linejoin:round;stroke-miterlimit:10;stroke-opacity:1" />
  <path
     inkscape:connector-curvature="0"
     id="path4811"
     d="m 315.50801,38.580072 5.88282,0.69922 2.58203,3.60938 2.30078,5.08984 3.94922,5.92969 3.27343,2.83203 3.57032,0.0781"
     style="fill:none;stroke:#bdbdbd;stroke-width:1.5;stroke-linecap:round;stroke-linejoin:round;stroke-miterlimit:10;stroke-opacity:1" />
  <path
     inkscape:connector-curvature="0"
     id="path4813"
     d="m 337.06661,56.818362 0.97656,-2.95313"
     style="fill:none;stroke:#bdbdbd;stroke-width:1.5;stroke-linecap:round;stroke-linejoin:round;stroke-miterlimit:10;stroke-opacity:1" />
  <path
     inkscape:connector-curvature="0"
     id="path4815"
     d="m 338.04317,53.865232 -2.625,-2.25 -1.79297,-2.50781 -0.13281,-0.89453"
     style="fill:none;stroke:#bdbdbd;stroke-width:1.5;stroke-linecap:round;stroke-linejoin:round;stroke-miterlimit:10;stroke-opacity:1" />
  <path
     inkscape:connector-curvature="0"
     id="path4817"
     d="m 338.04317,53.865232 1.98828,-1.32812 3.11719,-1.44532 4.28906,-2.22656"
     style="fill:none;stroke:#bdbdbd;stroke-width:1.5;stroke-linecap:round;stroke-linejoin:round;stroke-miterlimit:10;stroke-opacity:1" />
  <path
     inkscape:connector-curvature="0"
     id="path4819"
     d="m 347.4377,48.865232 -0.082,-3.94922 -0.63672,-3.2539"
     style="fill:none;stroke:#bdbdbd;stroke-width:1.5;stroke-linecap:round;stroke-linejoin:round;stroke-miterlimit:10;stroke-opacity:1" />
  <path
     inkscape:connector-curvature="0"
     id="path4821"
     d="m 347.4377,48.865232 3.94141,0.89844 7.19922,1.03515"
     style="fill:none;stroke:#bdbdbd;stroke-width:1.5;stroke-linecap:round;stroke-linejoin:round;stroke-miterlimit:10;stroke-opacity:1" />
  <path
     inkscape:connector-curvature="0"
     id="path4823"
     d="m 358.57833,50.798822 -0.45704,-2.40625 -1.00781,-1.98046"
     style="fill:none;stroke:#bdbdbd;stroke-width:1.5;stroke-linecap:round;stroke-linejoin:round;stroke-miterlimit:10;stroke-opacity:1" />
  <path
     inkscape:connector-curvature="0"
     id="path4825"
     d="m 358.57833,50.798822 3.03515,0.36329 3.6211,0.67968 3.54296,1.52735 3.33204,2.11718 2.45703,1.21875 4.52734,0.0781 4.30469,-2.52734 2.84375,-2.07032 2.54297,-0.96484 2.25,-1.67578 1.5664,-1.42578 0.79297,-2.3125 0.10938,-2.22657"
     style="fill:none;stroke:#bdbdbd;stroke-width:1.5;stroke-linecap:round;stroke-linejoin:round;stroke-miterlimit:10;stroke-opacity:1" />
  <path
     inkscape:connector-curvature="0"
     id="path4827"
     d="m 337.06661,56.818362 2.68359,2.27343"
     style="fill:none;stroke:#bdbdbd;stroke-width:1.5;stroke-linecap:round;stroke-linejoin:round;stroke-miterlimit:10;stroke-opacity:1" />
  <path
     inkscape:connector-curvature="0"
     id="path4829"
     d="m 339.7502,59.091792 2.3125,3.37891 4.62109,1.03516 3.13672,-2.17579 3.03907,-0.40234 1.94531,-2.84766 2.48828,-4.09375 2.43359,-2.89843 3.32422,-6.17969"
     style="fill:none;stroke:#bdbdbd;stroke-width:1.5;stroke-linecap:round;stroke-linejoin:round;stroke-miterlimit:10;stroke-opacity:1" />
  <path
     inkscape:connector-curvature="0"
     id="path4831"
     d="m 363.05098,44.908202 3.41016,-2.98438 2.38672,-3.35937 2.45312,-3.72656 1.79688,-5.98828 0.48828,-3.19922"
     style="fill:none;stroke:#bdbdbd;stroke-width:1.5;stroke-linecap:round;stroke-linejoin:round;stroke-miterlimit:10;stroke-opacity:1" />
  <path
     inkscape:connector-curvature="0"
     id="path4833"
     d="m 363.05098,44.908202 -2.41797,-6.11328 -2.27343,-3.94531 -1.02735,-3.33594 -1.53515,-4.07813 -0.11719,-5.125 -1.32031,-2.42578"
     style="fill:none;stroke:#bdbdbd;stroke-width:1.5;stroke-linecap:round;stroke-linejoin:round;stroke-miterlimit:10;stroke-opacity:1" />
  <path
     inkscape:connector-curvature="0"
     id="path4835"
     d="m 339.7502,59.091792 4.35156,2.07813 3.17578,3.39844 5.21094,3.20312 4.02344,1.43359 3.71875,2.79688 2.05469,1.33594"
     style="fill:none;stroke:#bdbdbd;stroke-width:1.5;stroke-linecap:round;stroke-linejoin:round;stroke-miterlimit:10;stroke-opacity:1" />
  <path
     inkscape:connector-curvature="0"
     id="path4837"
     d="m 362.28536,73.337892 -0.19141,3.8789 -0.96094,4.14063 -1.32031,4.14453 -0.28125,2.71875 1.08594,1.44531"
     style="fill:none;stroke:#bdbdbd;stroke-width:1.5;stroke-linecap:round;stroke-linejoin:round;stroke-miterlimit:10;stroke-opacity:1" />
  <path
     inkscape:connector-curvature="0"
     id="path4839"
     d="m 362.28536,73.337892 3.42578,0.0273 3.67187,0.73047 3.4336,0.89844 2.09375,0.63672"
     style="fill:none;stroke:#bdbdbd;stroke-width:1.5;stroke-linecap:round;stroke-linejoin:round;stroke-miterlimit:10;stroke-opacity:1" />
  <path
     inkscape:connector-curvature="0"
     id="path4841"
     d="m 374.91036,75.630862 -0.0781,2.80078 0.59766,2.76172 0.0664,1.65234"
     style="fill:none;stroke:#bdbdbd;stroke-width:1.5;stroke-linecap:round;stroke-linejoin:round;stroke-miterlimit:10;stroke-opacity:1" />
  <path
     inkscape:connector-curvature="0"
     id="path4843"
     d="m 374.91036,75.630862 2.75,-0.0156 4.20312,-1.0625 3.46094,-0.50781 3.16016,0.85547 4.47656,0.41015 4.26562,2.59375 1.77735,1.3711 3.53125,3.67578"
     style="fill:none;stroke:#bdbdbd;stroke-width:1.5;stroke-linecap:round;stroke-linejoin:round;stroke-miterlimit:10;stroke-opacity:1" />
  <text
     xml:space="preserve"
     style="font-style:normal;font-variant:normal;font-weight:normal;font-stretch:normal;font-size:18.69400024px;line-height:125%;font-family:Helvetica;-inkscape-font-specification:'Helvetica, Normal';font-variant-ligatures:normal;font-variant-caps:normal;font-variant-numeric:normal;font-feature-settings:normal;text-align:start;letter-spacing:0px;word-spacing:0px;writing-mode:lr-tb;text-anchor:start;fill:#9e1ef0;fill-opacity:1;stroke:none;stroke-width:0.51943284px;stroke-linecap:butt;stroke-linejoin:miter;stroke-opacity:1"
     x="25.124107"
     y="167.3688"
     id="text4856"
     transform="scale(1.0229843,0.9775321)"><tspan
       sodipodi:role="line"
       id="tspan4854"
       x="25.124107"
       y="167.3688"
       style="font-style:normal;font-variant:normal;font-weight:normal;font-stretch:normal;font-size:18.69400024px;font-family:Helvetica;-inkscape-font-specification:'Helvetica, Normal';font-variant-ligatures:normal;font-variant-caps:normal;font-variant-numeric:normal;font-feature-settings:normal;text-align:start;writing-mode:lr-tb;text-anchor:start;fill:#9e1ef0;fill-opacity:1;stroke-width:0.51943284px">root</tspan></text>
  <text
     xml:space="preserve"
     style="font-style:normal;font-variant:normal;font-weight:normal;font-stretch:normal;font-size:14.95694923px;line-height:125%;font-family:Helvetica;-inkscape-font-specification:'Helvetica, Normal';font-variant-ligatures:normal;font-variant-caps:normal;font-variant-numeric:normal;font-feature-settings:normal;text-align:start;letter-spacing:0px;word-spacing:0px;writing-mode:lr-tb;text-anchor:start;fill:#08fc08;fill-opacity:1;stroke:none;stroke-width:0.60007018px;stroke-linecap:butt;stroke-linejoin:miter;stroke-opacity:1"
     x="157.5128"
     y="87.701736"
     id="text4891"><tspan
       sodipodi:role="line"
       id="tspan4889"
       x="157.5128"
       y="87.701736"
       style="font-style:normal;font-variant:normal;font-weight:normal;font-stretch:normal;font-size:14.95694923px;font-family:Helvetica;-inkscape-font-specification:'Helvetica, Normal';font-variant-ligatures:normal;font-variant-caps:normal;font-variant-numeric:normal;font-feature-settings:normal;text-align:start;writing-mode:lr-tb;text-anchor:start;fill:#08fc08;fill-opacity:1;stroke-width:0.60007018px">end point</tspan></text>
  <text
     xml:space="preserve"
     style="font-style:normal;font-variant:normal;font-weight:normal;font-stretch:normal;font-size:14.95694923px;line-height:125%;font-family:Helvetica;-inkscape-font-specification:'Helvetica, Normal';font-variant-ligatures:normal;font-variant-caps:normal;font-variant-numeric:normal;font-feature-settings:normal;text-align:start;letter-spacing:0px;word-spacing:0px;writing-mode:lr-tb;text-anchor:start;fill:#ff0000;fill-opacity:1;stroke:none;stroke-width:0.60007018px;stroke-linecap:butt;stroke-linejoin:miter;stroke-opacity:1"
     x="63.680161"
     y="38.018734"
     id="text4895"><tspan
       sodipodi:role="line"
       id="tspan4893"
       x="63.680161"
       y="38.018734"
       style="font-style:normal;font-variant:normal;font-weight:normal;font-stretch:normal;font-size:14.95694923px;font-family:Helvetica;-inkscape-font-specification:'Helvetica, Normal';font-variant-ligatures:normal;font-variant-caps:normal;font-variant-numeric:normal;font-feature-settings:normal;text-align:start;writing-mode:lr-tb;text-anchor:start;fill:#ff0000;fill-opacity:1;stroke-width:0.60007018px">branch point</tspan></text>
  <path
     style="fill:none;fill-rule:evenodd;stroke:#000000;stroke-width:0.75px;stroke-linecap:butt;stroke-linejoin:miter;stroke-opacity:1;marker-end:url(#Arrow1Lend)"
     d="M 7.8211031,156.95532 28.643137,104.63328"
     id="path4985"
     inkscape:connector-curvature="0" />
  <text
     xml:space="preserve"
     style="font-style:normal;font-variant:normal;font-weight:normal;font-stretch:normal;font-size:18.69400024px;line-height:125%;font-family:Helvetica;-inkscape-font-specification:'Helvetica, Normal';font-variant-ligatures:normal;font-variant-caps:normal;font-variant-numeric:normal;font-feature-settings:normal;text-align:start;letter-spacing:0px;word-spacing:0px;writing-mode:lr-tb;text-anchor:start;fill:#000000;fill-opacity:1;stroke:none;stroke-width:0.75px;stroke-linecap:butt;stroke-linejoin:miter;stroke-opacity:1"
     x="-1.7890742"
     y="165.49768"
     id="text5868"><tspan
       sodipodi:role="line"
       id="tspan5866"
       x="-1.7890742"
       y="165.49768"
       style="font-style:normal;font-variant:normal;font-weight:normal;font-stretch:normal;font-size:18.69400024px;font-family:Helvetica;-inkscape-font-specification:'Helvetica, Normal';font-variant-ligatures:normal;font-variant-caps:normal;font-variant-numeric:normal;font-feature-settings:normal;text-align:start;writing-mode:lr-tb;text-anchor:start;stroke-width:0.75px">1</tspan></text>
</svg>
