<svg xmlns="http://www.w3.org/2000/svg" xmlns:xlink="http://www.w3.org/1999/xlink" viewBox="0 0 866.15 996"><defs><style>.a{isolation:isolate;}.b{fill:url(#a);}.c,.h{fill:#ce3f4a;}.c{stroke:#fff;stroke-miterlimit:10;stroke-width:5px;}.d{opacity:0.5;mix-blend-mode:soft-light;}.e{fill:#fff;}.f{fill:none;}.g{fill:#fbfdff;}</style><radialGradient id="a" cx="433.08" cy="498" r="446.6" gradientUnits="userSpaceOnUse"><stop offset="0.63" stop-color="#ce3f4a"/><stop offset="1" stop-color="#e42521" stop-opacity="0.8"/></radialGradient></defs><title>Asset 6</title><g class="a"><path class="b" d="M440.15,23.52c-5.29-3.07-9.3-2.91-14.47.12-28.9,17-58,33.6-87,50.33Q184.28,163,29.8,251.78c-7.89,4.52-11.06,9.56-11,18.94q.48,227.32,0,454.64c0,9,2.95,14,10.63,18.34,37.85,21.37,75.46,43.19,113.1,64.94q141.7,81.87,283.32,163.88c5.22,3,9.46,2.86,14.6-.13q89.45-51.95,179.05-103.58,108.63-62.73,217.36-125.27c7.22-4.14,10.49-8.76,10.44-17.6-.38-75.63-.22-151.27-.22-226.9,0-75.36-.3-150.72.33-226.07.09-11.55-4.11-17.2-13.51-22.57C759.09,207.7,684.56,164.54,610,121.53Q525,72.57,440.15,23.52Z"/><path class="c" d="M742.76,178.14Q594.23,92.37,445.89,6.32c-10.36-6-18-4.35-27.35,1.14-40.79,24-81.85,47.59-122.85,71.25Q153.25,160.89,10.74,242.93c-5.6,3.22-8.25,7.1-8.24,13.88q.24,240.56,0,481.1c0,7,2.61,11.36,8.62,14.64,10.69,5.84,21.12,12.15,31.67,18.23q104.72,60.33,209.42,120.64,86,49.56,171.88,99.29c6.23,3.61,11.4,3.78,17.71.12q84.77-49.19,169.76-98Q701.53,841,791.44,789.1c24.17-14,48.89-27.14,72.21-42.6V247.78Q803.2,213,742.76,178.14ZM847.12,498.81c0,75.64-.17,151.27.22,226.9,0,8.84-3.22,13.46-10.44,17.6Q728.09,805.72,619.53,868.58,530,920.3,440.49,972.16c-5.14,3-9.39,3.16-14.61.13Q284.3,890.23,142.57,808.41c-37.65-21.74-75.25-43.57-113.11-64.94-7.67-4.33-10.64-9.34-10.62-18.34q.42-227.31,0-454.63c0-9.39,3.14-14.42,11-18.95Q184.44,162.9,338.72,73.74c29-16.73,58.12-33.37,87-50.32,5.17-3,9.17-3.2,14.47-.13Q525,72.51,610,121.31c74.61,43,149.13,86.17,223.92,128.87,9.4,5.36,13.61,11,13.51,22.57C846.81,348.1,847.12,423.46,847.12,498.81Z"/><g class="d"><path class="e" d="M538.81,427c2.77,2.59,4.18,5.16,4.25,8.35.05,2.73-.61,5.16-2.95,6.81a8.11,8.11,0,0,0-2.5,3.3c-6.23,12.62-17.07,18.3-30.45,20a42.17,42.17,0,0,1-16-1.28,5.27,5.27,0,0,0-4,.46c-4.46,2.36-9,4.24-14.18,2.32-1.12-.42-1.68.12-1.57,1.25a13.56,13.56,0,0,0,.55,2.51c2.47,8.14,4.94,16.29,7.48,24.41a18.23,18.23,0,0,1,1,6.66c-.38,5.95-5.3,8.91-10.79,6.51-2.9-1.27-4.75-3.61-6.48-6.12-8.62-12.53-16-25.79-23.72-38.91a247.57,247.57,0,0,0-17.45-26,38.37,38.37,0,0,1-6.79-12.41c-.75-2.54-1.87-2.81-3.89-1.28-8.93,6.78-19.15,10.1-30.2,11.21-3.46.35-6.68,0-9.34-2.48a7.69,7.69,0,0,0-3.8-1.65c-7.23-1.62-13.82-4.76-20.18-8.46C337.1,416,333.86,406.31,335,394.67c.5-5,.55-5.14-4.61-4.46a28.85,28.85,0,0,1-9.33-.44c-11.51-2.22-23.16-4.07-33.35-10.48a8.81,8.81,0,0,1-3.14-2.73c-2-3.6-5.16-5.11-9-6.08a13.26,13.26,0,0,1-10.5-11.39,9.64,9.64,0,0,0-1.32-3.61c-1.05-1.67-2-3.62-1.78-5.46.74-5.79-.76-11.27-1.46-16.9-1.18-9.58,3.82-17,10-23.57,1.69-1.81,2.94-3.47,2.93-6.13a9.11,9.11,0,0,1,3.17-6.52c7.06-6.8,14-13.69,20.16-21.37,3.33-4.17,8.61-6.07,11.74-10.51a36.17,36.17,0,0,1,21.33-14.75,5.14,5.14,0,0,0,2.71-1.67c7-8.19,16.55-11.22,26.58-13.5,4.67-1.06,9.43-2,13.73-4.4a8.29,8.29,0,0,1,5.32-1c3.86.61,7.49-.27,11.12-1.34,6.51-1.92,13-4.45,19.84-4.06A44.37,44.37,0,0,0,425,222.83c4.12-1.27,8.11.34,11.23,3.41,1.29,1.27,2.38,1.52,3.95.58a12.91,12.91,0,0,1,11.51-.87c2,.73,4.09,1.35,6.13,2.06s4.19,1,6.18-.34a3.11,3.11,0,0,1,.59-.26c5.38-2.06,17.75,1,21.52,5.33a5.32,5.32,0,0,0,2.92,1.84c8.43,2.08,16.06,5.73,23.6,10.15,5.65,3.32,11.47,6,15.6,11.32a7.48,7.48,0,0,0,3.07,1.72,16.26,16.26,0,0,1,10.51,13.62,5.49,5.49,0,0,0,4.13,5.09,21.09,21.09,0,0,1,9.58,6.83c3.2,3.76,6.94,7.07,10.43,10.59,6,6.05,9.31,13.11,8.28,21.83-.29,2.44-.19,4.69,2.59,6a3.52,3.52,0,0,1,1.89,2.46c-.08,5.93,6,9.7,5.37,15.82-.15,1.47,1.11,2.77,2.08,3.93a18,18,0,0,1,4,11.69c0,.64-.16,1.45.15,1.89,2.86,4.07,1.39,8.21.47,12.43-2.31,10.54-4.7,21-8.79,31.06a47.75,47.75,0,0,1-10.79,16.71c-8.63,8.36-18.76,11.9-30.73,9.31A13.38,13.38,0,0,0,538.81,427Z"/></g><path class="f" d="M566.61,394.24c-.23.87-.44,1.68-.62,2.45C566.17,395.91,566.38,395.11,566.61,394.24Z"/><path class="f" d="M321,300.15c-7.51-1.07-15-2.33-22.53-3.22-4.39-.51-8.84-2.39-13.16-1.28a22.74,22.74,0,0,1-8.93.44c-4.19-.55-8.4-1.1-12.52-2-6.92-1.49-14-.75-21-2.06-2.47-.46-2.93,1.3-3.12,3.13-.17,1.54-.89,3.59,1.63,3.8,7.34.62,14.2,3.44,21.53,4.29s15.07.31,21.5,5.13a6.47,6.47,0,0,0,2.82.66q13,1.89,26.07,3.74a62.27,62.27,0,0,0,7.43.81c2.62,0,4.94-.83,6-3.56s1.4-5.24-.36-7.58A8.77,8.77,0,0,0,321,300.15Z"/><path class="f" d="M459.09,350.8c-3.12-8.89-3.56-17.69-.27-26.19-4.05,2.26-7.95,4.61-11.82,6.93a67.62,67.62,0,0,0,.71,33.16,12.74,12.74,0,0,0,8.24,9C459.64,366.38,462,359,459.09,350.8Z"/><path class="f" d="M515,379.56A116.32,116.32,0,0,1,499.89,382a18.8,18.8,0,0,1,.31,8.9c-2.31,13.42-.55,14.1,13.07,14.81,14.36.75,24.39-10.21,37.65-12,3.28-.44,2.36-4,1.83-6.4q-.6-2.73-1.28-5.45a115.39,115.39,0,0,0-13.85-3.33C529.54,376.94,522.41,378,515,379.56Z"/><path class="f" d="M468.93,309.71a31.47,31.47,0,0,0,5.07-6.37c-3.88.38-7.75,1-11.65,1.43A6.67,6.67,0,0,0,457,308a79.83,79.83,0,0,0-7.79,15.94c4.44-2.4,9-4.75,13.65-7A49.58,49.58,0,0,1,468.93,309.71Z"/><path class="g" d="M416.54,413.73c1.25-1.67,5.36-.8,8.41.14-.15-.32-.31-.62-.46-.95-4.78-11-13.82-20-25-28.73C381.3,370,355.42,374,334.77,386c-5.38,3.14-10.58,6.52-15.87,9.91,2.48-1,5.29-2.09,8.45-3.18L309.3,409c13.33-7.2,25.66-15.2,39.06-22.32,11.31-6,31.35-7.45,42.1-1,10.35,6.16,20.15,13.43,22,22a32.76,32.76,0,0,0,5.21,11.7C416.36,417,415.69,414.86,416.54,413.73Z"/><path class="g" d="M338.63,302.28l9.46-3.35a9.59,9.59,0,0,0,2.18,2.74c-.39-.83-.79-1.67-1.18-2.51-.84-1.83-2.24-2.4-4.11-2.59-4-.42-8-.94-12-1.52-19.86-2.9-39.71-5.86-59.57-8.75q-26.89-3.92-53.8-7.73c-6.76-1-13.52-2.48-20.31-2.61-8.76-.17-17.55.78-26.32,1.28-1.72.09-4,0-4.63,1.64-.52,1.32,1.63,2.31,2.62,3.94,4.11,3.6,8.1,7.89,12.75,11.48a157,157,0,0,0,29.84,17.75,138,138,0,0,0,60.24,13.06c1.27,0,2.37-.15,3.1-1.33,3.82-6.15,9.63-7.27,16.19-6.23Q310,320.22,326.88,323c8.69,1.42,17.31,3.23,25.48,6.57,3.14,1.29,5.46.11,8-1.12a2,2,0,0,0,1.22-2.06,43,43,0,0,1-6.32-9.47C351.36,308.88,346,304,338.63,302.28ZM326.8,310c-1.08,2.73-3.4,3.61-6,3.56a62.27,62.27,0,0,1-7.43-.81q-13-1.83-26.07-3.74a6.47,6.47,0,0,1-2.82-.66c-6.43-4.82-14.22-4.28-21.5-5.13s-14.19-3.67-21.53-4.29c-2.52-.21-1.8-2.26-1.63-3.8.19-1.83.65-3.59,3.12-3.13,6.92,1.31,14,.57,21,2.06,4.12.89,8.33,1.44,12.52,2a22.74,22.74,0,0,0,8.93-.44c4.32-1.11,8.77.77,13.16,1.28,7.53.89,15,2.15,22.53,3.22a8.77,8.77,0,0,1,5.42,2.31C328.2,304.8,327.84,307.41,326.8,310Z"/><path class="f" d="M631,313.23c-3.31-2.61-5.85-5.08-9.34-7.57l-1.82,21.51,1.82-21.51a50.49,50.49,0,0,0-5.5-3.46l-.24-.13c-1.21,0-2.88-.06-5.89-.28-2.57-.19-5.47-.4-7.82-.68-3.05,0-6.23.05-9.71.05-12.86.52-27.46.86-40.52-3.05-17.83-5.34-35.41-2.16-53.18-1.05-4.09.26-7.27,1.36-9.53,3.61-1,1-2,2.05-2.94,3.08a26.17,26.17,0,0,1,5.7,1.95c7.29,3.46,15.44,3.16,22.62,2.7,4.39,0,8-.16,11.59,0,12.63.7,21.48,8.78,18.86,21-3,13.82.44,26.17,3.16,39,.44,2.06.92,4.12,1.42,6.17,13.9,3.2,19.79,9.19,16.92,19.67-.23.87-.44,1.67-.62,2.45-.08.33-.14.63-.21.94s-.18.83-.26,1.22-.12.68-.17,1c0,0,0,0,0,.07q3.11,4.75,6.14,9.56c3.93.91,9.86,1.2,18.48,1.48a82.08,82.08,0,0,0,18.49-1.56l11.34-20.19L608.51,409.4c16.83-3.26,31.3-10.47,49-11.95,5.89-.49,4.23-4.54,3.29-7.23-2.5-7.13-5.63-14.18-8-21.32-4.88-14.48-11-28.42-5.66-44a16.19,16.19,0,0,0,.6-2.32q-7-3.76-14.06-7.37C632.64,314.49,631.77,313.83,631,313.23Z"/><path class="f" d="M479,371.69c4.24,2.54,10,4,16.4,4.18a21.84,21.84,0,0,0-7.17-3.25A29.93,29.93,0,0,0,479,371.69Z"/><path class="f" d="M472.58,364.72a15.21,15.21,0,0,0,6.43,7,29.93,29.93,0,0,1,9.23.93,21.84,21.84,0,0,1,7.17,3.25,57.55,57.55,0,0,0,11.75-.85c12.63-2.18,25-3.57,38-1.35,1.6.27,3.08.57,4.51.9-.5-2.05-1-4.11-1.42-6.17-2.72-12.83-6.12-25.18-3.16-39,2.62-12.19-6.23-20.27-18.86-21-3.59-.19-7.2,0-11.59,0-7.18.46-15.33.76-22.62-2.7a26.17,26.17,0,0,0-5.7-1.95C468.78,322.78,463.5,343.4,472.58,364.72Z"/><path class="g" d="M486.34,303.75c1-1,1.92-2.06,2.94-3.08,2.26-2.25,5.44-3.35,9.53-3.61,17.77-1.11,35.35-4.29,53.18,1.05,13.06,3.91,27.66,3.57,40.52,3.05,3.48,0,6.66,0,9.71-.05-2.53-.31-4.41-.7-4.43-1.22,0-1,6.24-2.05,9.53-2.45l1.88-.23L601.6,295a39.13,39.13,0,0,1,4.38-1.41c-1.3,0-2.59-.07-3.93-.06-22.7.06-45.13.6-66.62-5.26-3.85-1.05-9.67-1.54-13.16-.46-25.38,7.83-38.39-.42-49.41-11.51,5.6,11.29,8.87,14.78,7.82,16-.64.71-2.32,0-5.26-1.49,1.59,4.11,1.07,8.31-1.42,12.59A38.77,38.77,0,0,1,486.34,303.75Z"/><path class="g" d="M565.35,399.85c0-.32.11-.66.17-1s.17-.81.26-1.22.13-.61.21-.94c.18-.77.39-1.58.62-2.45,2.87-10.48-3-16.47-16.92-19.67.59,2.43,1.19,4.85,1.78,7.27,9.41,3.18,9.63,7.26,4.2,17.6-.15.28-.24.53-.37.8C557.72,395.72,562.49,395.54,565.35,399.85Z"/><path class="g" d="M495.41,375.87c-6.43-.22-12.16-1.64-16.4-4.18a54.93,54.93,0,0,0-12,2.13,18.36,18.36,0,0,1-11.06-.14c-.92,1.82-1.92,3.64-2.95,5.46-3.89,6.88-9.93,13.52-11.64,20.6-1.94,8.06-5.83,13.26-11.7,15.92a27.69,27.69,0,0,1,5.13,3.1L436,422l0,5.74a23,23,0,0,0,7.09,3.16l-7.14,2.69,0,6c-.71-.85-1.68-2-2.87-3.18,7.13,33.86,1.89,67.63-.38,101.39q-.21,3.13-.39,6.27a7.55,7.55,0,0,1,4.76-2.62,10.56,10.56,0,0,1,5.77.93c.69-36.63,7.85-73.2,1.29-110-3.24-18.12,8.22-35.16,20.19-51.56,3.17-4.34,7.91-5.22,13.85-2.41,7.14,3.38,14.42,4.06,21.79,3.5A11.65,11.65,0,0,0,495.41,375.87Z"/><path class="g" d="M545.18,373.67c-13.06-2.22-25.39-.83-38,1.35a57.55,57.55,0,0,1-11.75.85,11.65,11.65,0,0,1,4.48,6.08A116.32,116.32,0,0,0,515,379.56c7.4-1.56,14.53-2.62,22.61-1.05a115.39,115.39,0,0,1,13.85,3.33c-.59-2.42-1.19-4.84-1.78-7.27C548.26,374.24,546.78,373.94,545.18,373.67Z"/><path class="g" d="M467,373.82a54.93,54.93,0,0,1,12-2.13,15.21,15.21,0,0,1-6.43-7c-9.08-21.32-3.8-41.94,13.76-61a38.77,38.77,0,0,0-12.34-.41,31.47,31.47,0,0,1-5.07,6.37,49.58,49.58,0,0,0-6,7.23c1.59-.76,3.18-1.51,4.82-2.23l6.28,2.42a146.61,146.61,0,0,0-15.17,7.48c-3.29,8.5-2.85,17.3.27,26.19,2.89,8.22.55,15.58-3.14,22.88A18.36,18.36,0,0,0,467,373.82Z"/><path class="g" d="M443.06,430.93a23,23,0,0,1-7.09-3.16l-.05,5.85Z"/><path class="g" d="M565.35,399.85c0-.32.11-.65.17-1-.06.34-.12.68-.17,1Z"/><path class="g" d="M423,338c-10,5-27.82,6.28-37.41,1.09-9.23-5-18-10.88-19.7-17.9-1.65-6.73-6.11-12.51-13.24-17.58a23.09,23.09,0,0,1-2.39-2q5.43,11.74,10.94,23.46a3.57,3.57,0,0,1,.33,1.27,88.7,88.7,0,0,0,16,13.92c16.26,11.52,39.24,8.12,57.53-1.87,4-2.2,8-4.54,11.91-6.91a69.87,69.87,0,0,1,2.24-7.63C440.51,328.63,432,333.53,423,338Z"/><path class="g" d="M462.89,316.94c-4.69,2.22-9.21,4.57-13.65,7a69.87,69.87,0,0,0-2.24,7.63c3.87-2.32,7.77-4.67,11.82-6.93A37.68,37.68,0,0,1,462.89,316.94Z"/><path class="g" d="M350.27,301.67a9.59,9.59,0,0,1-2.18-2.74l-9.46,3.35c7.41,1.68,12.73,6.6,16.59,14.65a43,43,0,0,0,6.32,9.47,3.57,3.57,0,0,0-.33-1.27Q355.72,313.41,350.27,301.67Z"/><path class="g" d="M474,317.13l-6.28-2.42c-1.64.72-3.23,1.47-4.82,2.23a37.68,37.68,0,0,0-4.07,7.67A146.61,146.61,0,0,1,474,317.13Z"/><path class="g" d="M432.66,434.86l-.27.1c-.76-1.8-2.41-3.66-5.11-5.77a46.74,46.74,0,0,1-9.57-9.88,65.06,65.06,0,0,0,10,12.25c.34.29,1.49,1.2,3,2.59.87.8,1.62,1.55,2.31,2.27-.05-.25-.09-.5-.14-.75S432.73,435.13,432.66,434.86Z"/><path class="g" d="M429.66,415.66c-.41-.19-.82-.39-1.27-.57s-1.7-.68-3.44-1.22c.47,1,1,2,1.47,3A20.4,20.4,0,0,0,429.66,415.66Z"/><path class="g" d="M427.28,429.19c2.7,2.11,4.35,4,5.11,5.77l.27-.1c-1.29-5.11-3.83-8.23-8.87-10.07l2.42-7.87.21-.07c-.51-1-1-2-1.47-3-3.05-.94-7.16-1.81-8.41-.14-.85,1.13-.18,3.22,1.17,5.58A46.74,46.74,0,0,0,427.28,429.19Z"/><path class="g" d="M436,427.77l0-5.74-1.23-3.27a27.69,27.69,0,0,0-5.13-3.1,20.4,20.4,0,0,1-3.24,1.19A29.59,29.59,0,0,0,436,427.77Z"/><path class="g" d="M435.92,433.62l-3.26,1.24c.07.27.15.52.21.81s.09.5.14.75c1.19,1.23,2.16,2.33,2.87,3.18Z"/><path class="g" d="M426.42,416.85l-.21.07-2.42,7.87c5,1.84,7.58,5,8.87,10.07l3.26-1.24.05-5.85A29.59,29.59,0,0,1,426.42,416.85Z"/><path class="g" d="M297.34,414.54a2.3,2.3,0,0,1-.62,1.08,48.7,48.7,0,0,1-3.69,4c-4.06,3.53-6.75,8-9.5,12.5L309.3,409c-3.71,2-7.48,4-11.4,5.81Z"/><path class="g" d="M284.65,421.23l-4,3.42-.31-.35c3.77-4.06,7.5-8.15,11.31-12.17l-.82-.35c10.32-4.6,19.3-10.23,28-15.84-2.8,1.14-5.18,2.2-7.07,3.08-1.36.63-1.56.75-6.81,3.27-9.49,4.55-10.83,5.13-12,5.72-4.56,2.33-8,5.83-15.26,16.34-2.07,3-4.37,6.45-6.83,10.33l.83-.68C276.36,430.12,281.94,427.18,284.65,421.23Z"/><path class="g" d="M318.9,395.94c-8.75,5.61-17.73,11.24-28,15.84l.82.35.65-.7c1.4-1.47,2.53-.16,3.52.77.73.68,1.68,1.37,1.5,2.34l.56.24c3.92-1.84,7.69-3.8,11.4-5.81l18.05-16.21C324.19,393.85,321.38,394.93,318.9,395.94Z"/><path class="g" d="M464.11,278.67c-3.74-2.43-7.82-5.13-10.22-8.57l-8.57,3.95a13.67,13.67,0,0,0,3,4.12c2.93,2.69,5.15,1.63,14.94,6.32,5.38,2.57,9.35,4.81,12.17,6.26C473.83,286.64,470.14,282.61,464.11,278.67Z"/><path class="g" d="M445.1,273.61c-.62-2.62-1.25-5.23-1.88-7.85A24.48,24.48,0,0,0,445.1,273.61Z"/><path class="g" d="M462,266.35c3,1.36,4.85,3.57,6.8,5.68q2,2.18,4.05,4.25c-.42-.86-.86-1.75-1.31-2.7-2.43-5.12-3.23-6.94-4.7-9.77s-3.45-6.36-6.06-10.37a114.32,114.32,0,0,1,2.85,12.16Z"/><path class="g" d="M480.68,292.24c1.05-1.18-2.22-4.67-7.82-16q-2.06-2.07-4.05-4.25c-1.95-2.11-3.81-4.32-6.8-5.68l-8.12,3.75c2.4,3.44,6.48,6.14,10.22,8.57,6,3.94,9.72,8,11.31,12.08C478.36,292.28,480,293,480.68,292.24Z"/><path class="g" d="M271,434.68c-7.34,6.17-15.09,11.86-22.59,17.86-10.34,8.28-20.52,16.76-30.92,25-8.15,6.43-16.24,12.93-24.62,19.08-10.75,7.88-20.95,16.5-31.41,24.77-3.36,2.66-3.43,2.89-.56,5.94q3,3.18,6,6.42l-.1-5.24,5.61,2.82-.14-6.28,5.61,2.82-.14-6.27,5.6,2.81-.14-6.26,5.61,2.81-.13-6.28,5.61,2.82-.14-6.27,5.6,2.81-.14-6.26,5.6,2.81L205,504.3l5.6,2.81-.14-6.27,5.61,2.81-.12-6.27,5.61,2.81-.13-6.28,5.6,2.82-.13-6.27,5.61,2.81-.13-6.27,5.61,2.8-.13-6.27,5.61,2.81-.12-6.28,5.61,2.81-.12-6.27,5.61,2.81-.13-6.28,5.62,2.81-.12-6.28,5.6,2.81-.13-6.27,5.61,2.81-.12-6.28,5.61,2.81-.11-6.28,5.61,2.81-.11-6.29,5.61,2.82-.12-6.29.11.06-.1-4c-2.1-2.65-4.17-5.32-6.29-8-1.05-1.3-1.33-2.35-.27-3.9s1.91-2.93,2.83-4.42l-23.45,21.08C263.88,446.2,267.56,440,271,434.68Z"/><path class="g" d="M293,419.64a48.7,48.7,0,0,0,3.69-4,2.3,2.3,0,0,0,.62-1.08l-5.67-2.41c-3.81,4-7.54,8.11-11.31,12.17l.31.35,4-3.42c-2.71,5.95-8.29,8.89-12.87,12.77l-.83.68c-3.39,5.36-7.07,11.52-10.87,18.54l23.45-21.08C286.28,427.68,289,423.17,293,419.64Z"/><path class="g" d="M295.84,412.2c-1-.93-2.12-2.24-3.52-.77l-.65.7,5.67,2.41C297.52,413.57,296.57,412.88,295.84,412.2Z"/><path class="g" d="M566.36,406.84l-8.14,6.93c-4.81-4.24-5.59-8-2.92-13.53,0,.06-.08.1-.11.16-2.35,4.63-2.69,9.41-.08,14.1,4.2,7.55,8.39,15.1,12.72,22.58q12,20.71,23.63,41.65c7.61,13.71,15.1,27.5,22.86,41.13a67.4,67.4,0,0,1,8.29,25.22c.75,5.92.5,11.86.7,17.79.47,13.56,8.25,22.23,21,23.43a39,39,0,0,0,9.09-.45c1.92-.22,3.53-1,4.15-2.93.57-1.74-.85-2.77-1.89-3.86l-10.15-10.65a7.12,7.12,0,0,1-2.13-5.22,45,45,0,0,1,.88-9.47,29.93,29.93,0,0,1,7.44-14.35c1-1.09,1.91-1.29,3.09-.09,2.8,2.86,5.77,5.56,8.57,8.43a8.25,8.25,0,0,0,5.28,2.53c4.28.45,5.91-1.32,4.73-5.46a88.93,88.93,0,0,0-10.37-23c-3.46-5.55-8.73-7.33-14.7-7.12a17.42,17.42,0,0,1-14.43-6.31,65.87,65.87,0,0,1-6.41-9.41Q603,459.14,578,419.66l-6.47-10.18C569.06,408.9,567.38,408.07,566.36,406.84Z"/><path class="g" d="M565.35,399.85a.15.15,0,0,1,0,.07c0,.28-.08.56-.11.82s-.08.74-.1,1.08,0,.38,0,.56c0,.37,0,.74,0,1.07,0,.09,0,.17,0,.26a5.78,5.78,0,0,0,1.19,3.13c1,1.23,2.7,2.06,5.18,2.64q-3-4.8-6.14-9.56S565.37,399.88,565.35,399.85Z"/><path class="g" d="M558.22,413.77l8.14-6.93a5.75,5.75,0,0,1-1.19-3.13c0-.09,0-.17,0-.26,0-.33,0-.7,0-1.07,0-.18,0-.36,0-.56s.06-.7.1-1.08.07-.54.11-.82a.15.15,0,0,0,0-.07c-2.86-4.31-7.63-4.13-10.05.39C552.63,405.78,553.41,409.53,558.22,413.77Z"/><path class="g" d="M565.17,403.71a5.75,5.75,0,0,0,1.19,3.13A5.78,5.78,0,0,1,565.17,403.71Z"/><path class="g" d="M565.34,399.92a.15.15,0,0,0,0-.07h0A.15.15,0,0,1,565.34,399.92Z"/><path class="g" d="M445.15,273.83a2,2,0,0,0,.08.26l.09,0a4.51,4.51,0,0,1-.22-.44A2.25,2.25,0,0,1,445.15,273.83Z"/><path class="g" d="M444.44,248.88,455,245.15c2.24,2.93,4.16,5.7,5.84,8.29-1.24-4.44-2.55-8.85-3.56-13.37-4.06-18.3-9.2-36.17-14.06-54.14-1.72-6.37-4.08-12.56-5-19.13-1-7.32-.56-15-1.13-22.47-.3-3.85.5-5.64,4.38-6.14,7.82-1,14.79,1.35,21.91,3.5,8.94,2.7,16.89,7.46,25.2,11.47,4.76,2.3,6.66.87,6.74-4.58,0-.67-.2-1.08.46-1.67,3.94-3.55,1.44-5.47-1.1-7.32-11.92-8.67-24.73-15.78-35.13-21.27-17.23-8.28-32.77-7.42-48.65-3-6,1.67-11.35,4.26-15.5,10.17-3.6,5.12-8.89,8.24-14.79,7.44-7.37-1-14,2.34-20.86,4.84a5.62,5.62,0,0,0-3.88,6.46c1.13,7.25,2.44,14.45,5,21.19,1.1,2.87,3.21,4.06,6,3,6.67-2.45,13.52-4,19.48-9.13a18.67,18.67,0,0,1,19.81-3.48c9.52,3.61,13.21,12.36,15.78,21.83a178.51,178.51,0,0,1,4.42,19.12c1.18,7.46,4,14.53,5.74,21.95,3.64,15.69,7.45,31.32,11.17,47A62.88,62.88,0,0,1,444.44,248.88Z"/><path class="g" d="M451.9,265.22c4.54-.51,7.69,0,10.11,1.13l1.63-.75a114.32,114.32,0,0,0-2.85-12.16c-1.68-2.59-3.6-5.36-5.84-8.29l-10.51,3.73a62.88,62.88,0,0,0-1.22,16.88c.63,2.62,1.26,5.23,1.88,7.85a4.51,4.51,0,0,0,.22.44l8.57-3.95A10.91,10.91,0,0,1,451.9,265.22Z"/><path class="g" d="M451.9,265.22a10.91,10.91,0,0,0,2,4.88l8.12-3.75C459.59,265.26,456.44,264.71,451.9,265.22Z"/><path class="g" d="M731.91,344.21c-6.52-3.72-13.07-7.4-19.38-11.45-9.6-6.18-19.45-11.61-30.49-15A129,129,0,0,1,669.35,313c-8.67-1.89-15.31-3.71-20.44-5.36,5.45,2.25,12.05,4.62,20.09,7.06l-39.84-11.67.8.59c12,3.39,19.3,10.05,17.71,18.9,8.9,4.78,17.66,9.81,26.11,15.42,5,3.29,9.53,7.37,14.86,9.82,11.38,5.24,23.16,9.64,34.75,14.43,2.38,1,4,.41,5.07-1.86,1.73-3.48,3.5-6.93,5.28-10.38C735.05,347.43,734.44,345.66,731.91,344.21Z"/><path class="g" d="M630,303.65a63.5,63.5,0,0,1,7.32,6.18l-2,4.9c-5-7.08-9.58-10.29-13.34-11.67l-.22,2.6c3.49,2.49,6,5,9.34,7.57.76.6,1.63,1.26,2.6,1.95q7.08,3.6,14.06,7.37C649.26,313.7,642,307,630,303.65Z"/><path class="g" d="M615.93,302.07l.24.13a50.49,50.49,0,0,1,5.5,3.46l.22-2.6a15.63,15.63,0,0,0-3.54-.86C617.56,302.11,616.88,302.09,615.93,302.07Z"/><path class="g" d="M617.49,294.06l.47.28c1.58.18,3.13.39,4.62.63l-.14,1.63c3.16,1.44,8.5,3.81,16.2,7.24a103.79,103.79,0,0,0,10.27,3.83,99.78,99.78,0,0,1-18.44-9.55,29.79,29.79,0,0,0-12-5.18,29.14,29.14,0,0,0-12.5.63c4,.08,7.84.32,11.42.71Z"/><path class="g" d="M622.44,296.6l.14-1.63c-1.49-.24-3-.45-4.62-.63L619,295C619.3,295.15,620.43,295.69,622.44,296.6Z"/><path class="g" d="M609.2,297.21a29.49,29.49,0,0,1,7.09-.19l1.11-2.74c-3.58-.39-7.4-.63-11.42-.71A39.13,39.13,0,0,0,601.6,295Z"/><path class="g" d="M622.44,296.6l-.18,2.13a49.19,49.19,0,0,1,6.85,4.29l0,0L669,314.73c-8-2.44-14.64-4.81-20.09-7.06a103.79,103.79,0,0,1-10.27-3.83C630.94,300.41,625.6,298,622.44,296.6Z"/><path class="g" d="M617.49,294.06l-.09.22.56.06Z"/><path class="g" d="M622.26,298.73l.18-2.13c-2-.91-3.14-1.45-3.41-1.62l-1.07-.64-.56-.06L616.29,297a19.22,19.22,0,0,1,6,1.71Z"/><path class="g" d="M614.58,301.28c-.44,0-.85-.07-1.3-.08-3.58-.13-7.21-.12-11.06-.09,2.35.28,5.25.49,7.82.68,3,.22,4.68.26,5.89.28l-1.38-.72Z"/><path class="g" d="M613.28,301.2c.45,0,.86.06,1.3.08l.9-2.23-6.28-1.84-1.88.23c-3.29.4-9.58,1.47-9.53,2.45,0,.52,1.9.91,4.43,1.22C606.07,301.08,609.7,301.07,613.28,301.2Z"/><path class="g" d="M622,302a61.44,61.44,0,0,1,8,1.68l-.8-.59L622.07,301Z"/><path class="g" d="M621.89,303.06c3.76,1.38,8.32,4.59,13.34,11.67l2-4.9a63.5,63.5,0,0,0-7.32-6.18,61.44,61.44,0,0,0-8-1.68Z"/><path class="g" d="M614.58,301.28l0,.07,1.38.72c1,0,1.63,0,2.42.13a15.63,15.63,0,0,1,3.54.86L622,302C619.63,301.63,617.14,301.41,614.58,301.28Z"/><path class="g" d="M614.58,301.28c2.56.13,5,.35,7.41.69l.08-1-6.59-1.93Z"/><path class="g" d="M616.29,297a29.49,29.49,0,0,0-7.09.19l6.28,1.84Z"/><path class="g" d="M622.26,298.73l-.19,2.25,7.09,2.08,0,0A49.19,49.19,0,0,0,622.26,298.73Z"/><path class="g" d="M622.07,301l.19-2.25a19.22,19.22,0,0,0-6-1.71l-.81,2Z"/><path class="e" d="M438,774.46l7.83,1.27c0-.49,0-1,0-1.46a41.49,41.49,0,0,1-7.92-1.39C438,773.4,438,773.92,438,774.46Z"/><path class="e" d="M426.3,938.55a188.07,188.07,0,0,0-3.13,20.91,9.46,9.46,0,0,1,7.35,4.74c1.75,2.86,6,6.48,3.21,9.34s-5.11,6.24-8.09,8.84a5.84,5.84,0,0,0,2.29,2c4.09,1.91,11-1.61,13.43-6.46,3.22-6.45-3-12.13-5.74-23.28a50.63,50.63,0,0,1,2.11-29.13l-6.83-4A163.53,163.53,0,0,0,426.3,938.55Z"/><path class="e" d="M430.52,964.2a9.46,9.46,0,0,0-7.35-4.74c-.77,9.06-.63,18.54,2.47,22.92,3-2.6,5.38-6.07,8.09-8.84S432.27,967.06,430.52,964.2Z"/><path class="g" d="M442.79,554.16A120.67,120.67,0,0,0,447.58,585l11.92-8.61a257.27,257.27,0,0,1,34.89,56.84c-8.13-26.35-17.22-43.14-19.62-47.5-10-18.24-21.23-38.66-32-43.38Q442.65,548.27,442.79,554.16Z"/><path class="g" d="M433.78,595c.69-6.89,1-13.67-.32-20.67-1.93-10-1.79-20.12-1.22-30.25-5.73,6.51-6.74,24.5-22.83,51.85-11.17,19-20.35,26.78-26,36.75.81-1.14,1.53-2.09,2.09-2.83Z"/><path class="g" d="M437,541.46a7.55,7.55,0,0,0-4.76,2.62c-.57,10.13-.71,20.23,1.22,30.25,1.35,7,1,13.78.32,20.67l13.8-10a120.67,120.67,0,0,1-4.79-30.88q-.15-5.88,0-11.77A10.56,10.56,0,0,0,437,541.46Z"/><path class="e" d="M434.1,751.35c-1.46-.53-2.92.07-4.61,1.42l-3.75-2.93L413.13,740c-1.2-2.12-3.27-4.5-6.52-7.85-.23.06-.47.09-.7.16a13.67,13.67,0,0,0-.47-1.36c-3.55-3.62-8.3-8.29-14.59-14.78l-.17-.18a58.3,58.3,0,0,1-5.14-5.36c-11.47-13.6-13.11-28.82-12.28-44a49.23,49.23,0,0,1,1.62-10.09,45.91,45.91,0,0,1,3.38-8.76,43.36,43.36,0,0,1,5.17-15c-6.51,9.09-19.45,30.63-17.08,58.82,3.85,46,45,68.59,54.79,74,4.75,2.61,10.39,5.63,16.78,7.4C437.3,760.24,437.94,752.74,434.1,751.35Z"/><path class="e" d="M503.89,671.84a41,41,0,0,1,1.42,6.08c.17,1.13.34,2.25.42,3.41.11,1.64.21,3.27.28,4.91a39.13,39.13,0,0,1,.15,7.82c-.12,7.76-1.2,15.41-4.66,22.87-8.15,4.52-18.07,7.66-31.82,18.44-10.95,8.6-17.42,13.67-21.06,23.24a46.16,46.16,0,0,0-2.78,15.66,35.52,35.52,0,0,0,9.55-.57c12.64-2.52,20.36-11.12,27.4-19.18,17.19-19.7,29.08-50,24.66-82.2-1.7-12.34-5.2-20.61-11-34.25q-1-2.43-2.1-4.8.74,2.36,1.44,4.78C499,649,501.94,661.29,503.89,671.84Z"/><path class="e" d="M505.31,677.92a41,41,0,0,0-1.42-6.08c.39,2.09.73,4.1,1,6Z"/><path class="e" d="M378.26,647.72a45.91,45.91,0,0,0-3.38,8.76l2.23.36c.28-3.43.74-6.44,1.07-8.62C378.2,648.05,378.24,647.89,378.26,647.72Z"/><path class="e" d="M390.68,716c-1.88-1.93-3.57-3.7-5.14-5.36A58.3,58.3,0,0,0,390.68,716Z"/><path class="e" d="M406.61,732.12l-1.17-1.2a13.67,13.67,0,0,1,.47,1.36C406.14,732.21,406.38,732.18,406.61,732.12Z"/><path class="e" d="M405.44,730.92a22.16,22.16,0,0,0-7.87-9.36,70.55,70.55,0,0,1-6.89-5.6l.17.18C397.14,722.63,401.89,727.3,405.44,730.92Z"/><path class="e" d="M506,686.24c-.07-1.64-.17-3.27-.28-4.91-.08-1.16-.25-2.28-.42-3.41l-.38-.06C505.41,680.93,505.78,683.75,506,686.24Z"/><path class="e" d="M469.68,735.37c13.75-10.78,23.67-13.92,31.82-18.44,3.46-7.46,4.54-15.11,4.66-22.87-.19,1.56-.6,2.52-1.25,2.73-1.59.51-3.59-3.72-6.27-6.81-21.37-24.67-90.23,18.63-113.93-4-7.82-7.47-8.36-19.86-7.6-29.15l-2.23-.36a49.23,49.23,0,0,0-1.62,10.09c-.83,15.21.81,30.43,12.28,44,1.57,1.66,3.26,3.43,5.14,5.36a70.55,70.55,0,0,0,6.89,5.6,22.16,22.16,0,0,1,7.87,9.36l1.17,1.2a21.53,21.53,0,0,1,8.09-.35c8.35,1.17,10.47,7.44,11.2,13.67a13.94,13.94,0,0,1-.16,4.4l3.75,2.93c1.69-1.35,3.15-1.95,4.61-1.42,3.84,1.39,3.2,8.89,3.82,21.53a41.49,41.49,0,0,0,7.92,1.39,46.16,46.16,0,0,1,2.78-15.66C452.26,749,458.73,744,469.68,735.37Z"/><path class="e" d="M425.74,749.84a13.94,13.94,0,0,0,.16-4.4c-.73-6.23-2.85-12.5-11.2-13.67a21.53,21.53,0,0,0-8.09.35c3.25,3.35,5.32,5.73,6.52,7.85Z"/><path class="e" d="M447.58,585c6.47,22.09,19.53,43,39.73,62.29,8.23,7.87,13.86,15.86,16.58,24.51-1.95-10.55-4.89-22.88-8.06-33.79q-.7-2.43-1.44-4.78a257.27,257.27,0,0,0-34.89-56.84Z"/><path class="e" d="M408.77,622.83c17.67-6.23,23.36-13,24.63-24.27.14-1.19.26-2.38.38-3.56l-48.26,34.85c-.56.74-1.28,1.69-2.09,2.83a43.36,43.36,0,0,0-5.17,15C383.51,637.4,393.17,628.32,408.77,622.83Z"/><path class="e" d="M506,686.24c.13,2.61.19,5.22.15,7.82A39.13,39.13,0,0,0,506,686.24Z"/><path class="e" d="M408.77,622.83c-15.6,5.49-25.26,14.57-30.51,24.89,0,.17-.06.33-.08.5-.33,2.18-.79,5.19-1.07,8.62l127.82,21c-.31-1.92-.65-3.93-1-6-2.72-8.65-8.35-16.64-16.58-24.51-20.2-19.3-33.26-40.2-39.73-62.29l-13.8,10c-.12,1.18-.24,2.37-.38,3.56C432.13,609.88,426.44,616.6,408.77,622.83Z"/><path class="e" d="M377.11,656.84c-.76,9.29-.22,21.68,7.6,29.15,23.7,22.62,92.56-20.68,113.93,4,2.68,3.09,4.68,7.32,6.27,6.81.65-.21,1.06-1.17,1.25-2.73,0-2.6,0-5.21-.15-7.82s-.6-5.31-1.08-8.38Z"/><path class="e" d="M468.05,755c-6.49,3.81-16,10.66-21.5,21.63-1.68,3.32-1.57,4.61-5.06,23.79-4,21.83-4.27,21.7-3.8,23.79,1.39,6.14,4.22,8.68,12.65,28.12a21.23,21.23,0,0,1,1.26,3.25c1.84,6.72-1.17,12.62-7.58,23.79-7.39,12.86-7,11.28-7.59,13s-2.26,6.86,0,25.95c.34,2.86.64,5.05.92,6.84.79,5.06,1.08,6.57,1.29,8.1.87,6.52-1.44,8.65-3.48,21,0,.29-.45,3.57-1.26,10.11-1.87,15.12-2.16,17.72-2.53,17.71s-.88-4.78-1.26-17.31c-.3-9.73-.86-19.46-1.27-29.2-1.48-34.83-4.75-32.44-2.53-41.09,4.83-18.77,17.22-18.28,19-33.53,2-17.23-13.59-20.19-15.17-41.09-1.49-19.47,11.36-25.57,7.58-41.1-3.05-12.55-14-21.65-26.55-28.12"/><path class="e" d="M349.49,740.1h-11.2q0-4.07.14-26.93t.15-28.23q0-7.58-.08-22.71t-.21-22q-.44-23.14-8-31.88t-25-8.73q-10.19,0-26.63,7.27a211.85,211.85,0,0,0-28.68,15.14q0,1.61-.07,20.45t-.08,31.81q0,16.89.15,40.76t.15,25H238.87q0-1,.14-17.83t.15-50q0-15.28-.15-35.66t-.14-43.52h11.21l-.15,19.21.15.29a236.79,236.79,0,0,1,30.71-16q15.57-6.69,29.4-6.7,17,0,28.1,11.28t11.06,31.66q0,18.34-.07,31.66t-.08,21.62q0,13.24.15,33.11T349.49,740.1Z"/><path class="h" d="M491.71,655.91V740.1q-4.8.17-16.52,1t-21.91.79a157.6,157.6,0,0,1-23.07-1.75A69.7,69.7,0,0,1,409.47,734q-11.66-5.67-17.47-14.7a36.8,36.8,0,0,1-5.82-20.38A32.89,32.89,0,0,1,394,677.15q7.86-9.39,23.87-15.8a138.09,138.09,0,0,1,21.47-6.47q11.13-2.4,41.56-5.46-.88-15.43-6.06-24.82a39.2,39.2,0,0,0-15.38-15.21,55.11,55.11,0,0,0-15.09-5.61,93.06,93.06,0,0,0-20.35-2q-6.71,0-11.88.22c-3.46.14-6.69.27-9.7.36l1.16-9.75c1.46-.1,3.65-.19,6.57-.29s7.19-.15,12.83-.15q17.49,0,30.61,3.86t21.44,11.56a48.78,48.78,0,0,1,12.46,18.47Q491.71,636.86,491.71,655.91Zm-10.77,40.16V658.44q-12.54.88-29.9,3.56t-28.72,7.19q-13,5.09-19,12.72a25.77,25.77,0,0,0-6.05,16.34q0,11.19,6.05,18.52t18.3,11.84a69.19,69.19,0,0,0,16.7,3.49,228.57,228.57,0,0,0,23,1c1.75,0,4.4-.08,7.95-.22s7.41-.41,11.59-.8q0-2.61.07-13.58T480.94,696.07Z"/><path class="e" d="M610.92,731.22l-.87,9c-1.07,0-2.62,0-4.66.14s-3.93.15-5.67.15q-26.07,0-39.23-12.74T547.31,689q0-18,.15-42.14t.15-44.76H523v-8.73h25V559.32h10.34v34.06h53.71v8.73H558.38q0,4.36-.15,17.61t-.14,26.35q0,14.7.07,23t.07,16.3q0,24,9.68,35t34.86,11c1.36,0,2.82,0,4.37-.07S610,731.22,610.92,731.22Z"/></g></svg>